<svg xmlns="http://www.w3.org/2000/svg" viewBox="0 0 64 64"><g id="_27-coconut_tree" data-name="27-coconut tree"><path d="M31,57H25V51h6l.12-.01c.1,1.78.26,3.96.4,5.97Z" style="fill:#db885b"/><path d="M26.23,39h4.98c-.11,2.26-.17,4.36-.19,6H25.31C25.54,43.19,25.86,41.11,26.23,39Z" style="fill:#db885b"/><path d="M31.91,61.92a1,1,0,0,1-1,1.08H26a1,1,0,0,1-1-1V57h6l.52-.04C31.67,58.97,31.82,60.82,31.91,61.92Z" style="fill:#c47952"/><path d="M31,51H25V49a36.315,36.315,0,0,1,.31-4h5.71C31,46.38,31,47.44,31,48c0,.64.05,1.71.12,2.99Z" style="fill:#c47952"/><path d="M27.34,33h4.32c-.21,2-.35,4.06-.45,6H26.23C26.58,36.97,26.97,34.9,27.34,33Z" style="fill:#c47952"/><path d="M28.78,25.96c1.7-3.72,3.2-7.86,3.22-10.89a24.137,24.137,0,0,0,1.98,7.97c-1.18,1.99-1.89,5.85-2.32,9.96H27.34c.6-3.05,1.15-5.66,1.44-7.02C28.79,25.98,28.79,25.97,28.78,25.96Z" style="fill:#e6b269"/><path d="M32.01,15C40,16.02,40,35,40,35a87,87,0,0,1-6.02-11.96A24.137,24.137,0,0,1,32,15.07V15Z" style="fill:#5d802b"/><path d="M28.78,25.96c.01.01.01.02,0,.02A94.854,94.854,0,0,1,24,35s0-18.98,7.99-20H32v.07C31.98,18.1,30.48,22.24,28.78,25.96Z" style="fill:#5d802b"/><path d="M42,22a38.112,38.112,0,0,1-2,13s0-18.98-7.99-20a14.8,14.8,0,0,1,1.97.17C36.89,15.57,42,17,42,22Z" style="fill:#6cab46"/><path d="M30.02,15.17A15.037,15.037,0,0,1,31.99,15C24,16.02,24,35,24,35a38.112,38.112,0,0,1-2-13C22,17,27.11,15.57,30.02,15.17Z" style="fill:#6cab46"/><path d="M38,10.28c-4.31.85-5.58,3.47-5.9,4.39,1-3.43,2.57-7.5,6.9-9.67,6-3,13-1,13-1s-6.35.93-13.99,6.27A.01.01,0,0,1,38,10.28Z" style="fill:#538f2c"/><path d="M31.9,14.67c-.35-1.01-1.83-4.03-7.14-4.58C17.17,4.65,12,4,12,4s7-2,13,1C29.33,7.17,30.9,11.24,31.9,14.67Z" style="fill:#538f2c"/><path d="M46,1s4,.38,6,3c0,0-7-2-13,1-4.33,2.17-5.9,6.24-6.9,9.67a.487.487,0,0,0-.04.11c-.01.05-.03.1-.04.15-.01.02-.01.04-.02.05v-.05c.02-1.05.47-12.74,10.55-13.89a8.9,8.9,0,0,1,.9-.04Z" style="fill:#7bc24f"/><path d="M21.45,1.04C31.53,2.19,31.98,13.88,32,14.93v.05a.621.621,0,0,1-.03-.1l-.06-.18a.037.037,0,0,0-.01-.03c-1-3.43-2.57-7.5-6.9-9.67C19,2,12,4,12,4c2-2.63,6-3,6-3h2.55A8.9,8.9,0,0,1,21.45,1.04Z" style="fill:#7bc24f"/><path d="M40,13c9,0,14,13,14,13S46,15,34,15l-.02.17A14.8,14.8,0,0,0,32.01,15H32a.031.031,0,0,1,.01-.02C32.15,14.76,33.44,13,40,13Z" style="fill:#4f9a44"/><path d="M24,13c6.56,0,7.85,1.76,7.99,1.98A.031.031,0,0,1,32,15h-.01a15.037,15.037,0,0,0-1.97.17L30,15C18,15,10,26,10,26S15,13,24,13Z" style="fill:#4f9a44"/><path d="M40,13c-6.56,0-7.85,1.76-7.99,1.98,0-.02.01-.03.01-.05.01-.05.03-.1.04-.15a.487.487,0,0,1,.04-.11c.32-.92,1.59-3.54,5.9-4.39a.01.01,0,0,0,.01-.01A15.57,15.57,0,0,1,41,10c9,0,13,10,13,16C54,26,49,13,40,13Z" style="fill:#7bc24f"/><path d="M31.99,14.98C31.85,14.76,30.56,13,24,13c-9,0-14,13-14,13,0-6,4-16,13-16a16.036,16.036,0,0,1,1.76.09c5.31.55,6.79,3.57,7.14,4.58a.037.037,0,0,1,.01.03l.06.18C31.98,14.91,31.98,14.95,31.99,14.98Z" style="fill:#7bc24f"/><path d="M27,51H25v6h2Z" style="fill:#92563a"/><path d="M27,44a32.463,32.463,0,0,1,.535-5h-1.3c-.37,2.11-.69,4.19-.92,6H27Z" style="fill:#92563a"/><path d="M25,57v5a1,1,0,0,0,1,1h1V57Z" style="fill:#6f3529"/><path d="M27,45H25.31A36.315,36.315,0,0,0,25,49v2h2Z" style="fill:#6f3529"/><path d="M28.756,33H27.34c-.37,1.9-.76,3.97-1.11,6h1.3C27.875,36.981,28.328,34.849,28.756,33Z" style="fill:#6f3529"/><path d="M29.217,31.057a4.006,4.006,0,0,1,3.153-2.985,16.772,16.772,0,0,1,1.61-5.032A24.137,24.137,0,0,1,32,15.07c-.02,3.03-1.52,7.17-3.22,10.89.01.01.01.02,0,.02-.29,1.36-.84,3.97-1.44,7.02h1.416C28.916,32.306,29.073,31.648,29.217,31.057Z" style="fill:#bf9259"/></g></svg>